<?xml version="1.0" standalone="no"?>
 <!DOCTYPE svg PUBLIC "-//W3C//DTD SVG 1.1//EN" 
 "http://www.w3.org/Graphics/SVG/1.1/DTD/svg11.dtd"> 
<svg xmlns="http://www.w3.org/2000/svg" version="1.1" 
    width="5.53212cm" height="3.937cm" viewBox="0 0 21780 15500 ">
<title>SVG Picture created as spider-F.Cu.svg date 2017/02/19 20:25:16 </title>
  <desc>Picture generated by PCBNEW </desc>
<g style="fill:#000000; fill-opacity:1;stroke:#000000; stroke-opacity:1;
stroke-linecap:round; stroke-linejoin:round; "
 transform="translate(0 0) scale(1 1)">
</g>
<g style="fill:#000000; fill-opacity:0.0; 
stroke:#000000; stroke-width:-0.000393701; stroke-opacity:1; 
stroke-linecap:round; stroke-linejoin:round;">
</g>
<g style="fill:#000000; fill-opacity:0.0; 
stroke:#000000; stroke-width:0; stroke-opacity:1; 
stroke-linecap:round; stroke-linejoin:round;">
</g>
<g style="fill:#000000; fill-opacity:1.0; 
stroke:#000000; stroke-width:0; stroke-opacity:1; 
stroke-linecap:round; stroke-linejoin:round;">
<polyline style="fill-rule:evenodd;"
points="6014,5522
6014,6152
4990,6152
4990,5522
6014,5522
" /> 
<polyline style="fill-rule:evenodd;"
points="7431,5522
7431,6152
6407,6152
6407,5522
7431,5522
" /> 
<circle cx="11835.9" cy="5862.56" r="433.071" /> 
</g>
<g style="fill:#000000; fill-opacity:1.0; 
stroke:#000000; stroke-width:39.3701; stroke-opacity:1; 
stroke-linecap:round; stroke-linejoin:round;">
</g>
<g style="fill:#000000; fill-opacity:1.0; 
stroke:#000000; stroke-width:0; stroke-opacity:1; 
stroke-linecap:round; stroke-linejoin:round;">
<polyline style="fill-rule:evenodd;"
points="6020,11487
6700,11487
6700,12287
6020,12287
6020,11487
" /> 
</g>
<g style="fill:#000000; fill-opacity:1.0; 
stroke:#000000; stroke-width:680; stroke-opacity:1; 
stroke-linecap:round; stroke-linejoin:round;">
</g>
<g style="fill:#000000; fill-opacity:0.0; 
stroke:#000000; stroke-width:680; stroke-opacity:1; 
stroke-linecap:round; stroke-linejoin:round;">
<path d="M5360 11827
L5360 11947
" />
<path d="M4360 11827
L4360 11947
" />
</g>
<g style="fill:#000000; fill-opacity:0.0; 
stroke:#000000; stroke-width:0; stroke-opacity:1; 
stroke-linecap:round; stroke-linejoin:round;">
</g>
<g style="fill:#000000; fill-opacity:1.0; 
stroke:#000000; stroke-width:0; stroke-opacity:1; 
stroke-linecap:round; stroke-linejoin:round;">
<polyline style="fill-rule:evenodd;"
points="9308,1841
7812,1841
7812,1053
9308,1053
9308,1841
" /> 
<polyline style="fill-rule:evenodd;"
points="8856,4321
8265,4321
8265,3534
8856,3534
8856,4321
" /> 
<polyline style="fill-rule:evenodd;"
points="9761,4321
9171,4321
9171,3534
9761,3534
9761,4321
" /> 
<polyline style="fill-rule:evenodd;"
points="7950,4321
7360,4321
7360,3534
7950,3534
7950,4321
" /> 
<polyline style="fill-rule:evenodd;"
points="6966,11075
6750,11075
6750,10445
6966,10445
6966,11075
" /> 
<polyline style="fill-rule:evenodd;"
points="7281,11075
7065,11075
7065,10445
7281,10445
7281,11075
" /> 
<polyline style="fill-rule:evenodd;"
points="7596,11075
7380,11075
7380,10445
7596,10445
7596,11075
" /> 
<polyline style="fill-rule:evenodd;"
points="7911,11075
7695,11075
7695,10445
7911,10445
7911,11075
" /> 
<polyline style="fill-rule:evenodd;"
points="8226,11075
8010,11075
8010,10445
8226,10445
8226,11075
" /> 
<polyline style="fill-rule:evenodd;"
points="8541,11075
8325,11075
8325,10445
8541,10445
8541,11075
" /> 
<polyline style="fill-rule:evenodd;"
points="8856,11075
8640,11075
8640,10445
8856,10445
8856,11075
" /> 
<polyline style="fill-rule:evenodd;"
points="9171,11075
8955,11075
8955,10445
9171,10445
9171,11075
" /> 
<polyline style="fill-rule:evenodd;"
points="9949,10081
9949,10298
9319,10298
9319,10081
9949,10081
" /> 
<polyline style="fill-rule:evenodd;"
points="9949,9766
9949,9983
9319,9983
9319,9766
9949,9766
" /> 
<polyline style="fill-rule:evenodd;"
points="9949,9451
9949,9668
9319,9668
9319,9451
9949,9451
" /> 
<polyline style="fill-rule:evenodd;"
points="9949,9136
9949,9353
9319,9353
9319,9136
9949,9136
" /> 
<polyline style="fill-rule:evenodd;"
points="9949,8821
9949,9038
9319,9038
9319,8821
9949,8821
" /> 
<polyline style="fill-rule:evenodd;"
points="9949,8506
9949,8723
9319,8723
9319,8506
9949,8506
" /> 
<polyline style="fill-rule:evenodd;"
points="9949,8191
9949,8408
9319,8408
9319,8191
9949,8191
" /> 
<polyline style="fill-rule:evenodd;"
points="9949,7876
9949,8093
9319,8093
9319,7876
9949,7876
" /> 
<polyline style="fill-rule:evenodd;"
points="9171,7729
8955,7729
8955,7099
9171,7099
9171,7729
" /> 
<polyline style="fill-rule:evenodd;"
points="8856,7729
8640,7729
8640,7099
8856,7099
8856,7729
" /> 
<polyline style="fill-rule:evenodd;"
points="8541,7729
8325,7729
8325,7099
8541,7099
8541,7729
" /> 
<polyline style="fill-rule:evenodd;"
points="8226,7729
8010,7729
8010,7099
8226,7099
8226,7729
" /> 
<polyline style="fill-rule:evenodd;"
points="7911,7729
7695,7729
7695,7099
7911,7099
7911,7729
" /> 
<polyline style="fill-rule:evenodd;"
points="7596,7729
7380,7729
7380,7099
7596,7099
7596,7729
" /> 
<polyline style="fill-rule:evenodd;"
points="7281,7729
7065,7729
7065,7099
7281,7099
7281,7729
" /> 
<polyline style="fill-rule:evenodd;"
points="6966,7729
6750,7729
6750,7099
6966,7099
6966,7729
" /> 
<polyline style="fill-rule:evenodd;"
points="6602,7876
6602,8093
5972,8093
5972,7876
6602,7876
" /> 
<polyline style="fill-rule:evenodd;"
points="6602,8191
6602,8408
5972,8408
5972,8191
6602,8191
" /> 
<polyline style="fill-rule:evenodd;"
points="6602,8506
6602,8723
5972,8723
5972,8506
6602,8506
" /> 
<polyline style="fill-rule:evenodd;"
points="6602,8821
6602,9038
5972,9038
5972,8821
6602,8821
" /> 
<polyline style="fill-rule:evenodd;"
points="6602,9136
6602,9353
5972,9353
5972,9136
6602,9136
" /> 
<polyline style="fill-rule:evenodd;"
points="6602,9451
6602,9668
5972,9668
5972,9451
6602,9451
" /> 
<polyline style="fill-rule:evenodd;"
points="6602,9766
6602,9983
5972,9983
5972,9766
6602,9766
" /> 
<polyline style="fill-rule:evenodd;"
points="6602,10081
6602,10298
5972,10298
5972,10081
6602,10081
" /> 
<polyline style="fill-rule:evenodd;"
points="10610,7337
11210,7337
11210,7937
10610,7937
10610,7337
" /> 
<circle cx="11910.9" cy="7637.56" r="300" /> 
</g>
<g style="fill:#000000; fill-opacity:1.0; 
stroke:#000000; stroke-width:39.3701; stroke-opacity:1; 
stroke-linecap:round; stroke-linejoin:round;">
</g>
<g style="fill:#000000; fill-opacity:1.0; 
stroke:#000000; stroke-width:0; stroke-opacity:1; 
stroke-linecap:round; stroke-linejoin:round;">
<circle cx="10910.9" cy="8637.56" r="300" /> 
</g>
<g style="fill:#000000; fill-opacity:1.0; 
stroke:#000000; stroke-width:39.3701; stroke-opacity:1; 
stroke-linecap:round; stroke-linejoin:round;">
</g>
<g style="fill:#000000; fill-opacity:1.0; 
stroke:#000000; stroke-width:0; stroke-opacity:1; 
stroke-linecap:round; stroke-linejoin:round;">
<circle cx="11910.9" cy="8637.56" r="300" /> 
</g>
<g style="fill:#000000; fill-opacity:1.0; 
stroke:#000000; stroke-width:39.3701; stroke-opacity:1; 
stroke-linecap:round; stroke-linejoin:round;">
</g>
<g style="fill:#000000; fill-opacity:1.0; 
stroke:#000000; stroke-width:0; stroke-opacity:1; 
stroke-linecap:round; stroke-linejoin:round;">
<circle cx="10910.9" cy="9637.56" r="300" /> 
</g>
<g style="fill:#000000; fill-opacity:1.0; 
stroke:#000000; stroke-width:39.3701; stroke-opacity:1; 
stroke-linecap:round; stroke-linejoin:round;">
</g>
<g style="fill:#000000; fill-opacity:1.0; 
stroke:#000000; stroke-width:0; stroke-opacity:1; 
stroke-linecap:round; stroke-linejoin:round;">
<circle cx="11910.9" cy="9637.56" r="300" /> 
</g>
<g style="fill:#000000; fill-opacity:1.0; 
stroke:#000000; stroke-width:39.3701; stroke-opacity:1; 
stroke-linecap:round; stroke-linejoin:round;">
</g>
<g style="fill:#000000; fill-opacity:1.0; 
stroke:#000000; stroke-width:0; stroke-opacity:1; 
stroke-linecap:round; stroke-linejoin:round;">
<circle cx="10910.9" cy="10637.6" r="300" /> 
</g>
<g style="fill:#000000; fill-opacity:1.0; 
stroke:#000000; stroke-width:39.3701; stroke-opacity:1; 
stroke-linecap:round; stroke-linejoin:round;">
</g>
<g style="fill:#000000; fill-opacity:1.0; 
stroke:#000000; stroke-width:0; stroke-opacity:1; 
stroke-linecap:round; stroke-linejoin:round;">
<circle cx="11910.9" cy="10637.6" r="300" /> 
</g>
<g style="fill:#000000; fill-opacity:1.0; 
stroke:#000000; stroke-width:39.3701; stroke-opacity:1; 
stroke-linecap:round; stroke-linejoin:round;">
</g>
<g style="fill:#000000; fill-opacity:1.0; 
stroke:#000000; stroke-width:0; stroke-opacity:1; 
stroke-linecap:round; stroke-linejoin:round;">
<polyline style="fill-rule:evenodd;"
points="10426,1922
10426,1252
11095,1252
11095,1922
10426,1922
" /> 
</g>
<g style="fill:#000000; fill-opacity:1.0; 
stroke:#000000; stroke-width:669.291; stroke-opacity:1; 
stroke-linecap:round; stroke-linejoin:round;">
</g>
<g style="fill:#000000; fill-opacity:0.0; 
stroke:#000000; stroke-width:669.291; stroke-opacity:1; 
stroke-linecap:round; stroke-linejoin:round;">
<path d="M11760 1587
L11760 1587
" />
<path d="M10760 2587
L10760 2587
" />
<path d="M11760 2587
L11760 2587
" />
<path d="M10760 3587
L10760 3587
" />
<path d="M11760 3587
L11760 3587
" />
</g>
<g style="fill:#000000; fill-opacity:0.0; 
stroke:#000000; stroke-width:0; stroke-opacity:1; 
stroke-linecap:round; stroke-linejoin:round;">
</g>
<g style="fill:#000000; fill-opacity:1.0; 
stroke:#000000; stroke-width:0; stroke-opacity:1; 
stroke-linecap:round; stroke-linejoin:round;">
<polyline style="fill-rule:evenodd;"
points="8606,12534
8114,12534
8114,12140
8606,12140
8606,12534
" /> 
<polyline style="fill-rule:evenodd;"
points="8606,11747
8114,11747
8114,11353
8606,11353
8606,11747
" /> 
<polyline style="fill-rule:evenodd;"
points="9157,6152
9157,5522
10181,5522
10181,6152
9157,6152
" /> 
<polyline style="fill-rule:evenodd;"
points="7740,6152
7740,5522
8764,5522
8764,6152
7740,6152
" /> 
<polyline style="fill-rule:evenodd;"
points="10380,11976
10380,12448
9907,12448
9907,11976
10380,11976
" /> 
<polyline style="fill-rule:evenodd;"
points="9514,11976
9514,12448
9041,12448
9041,11976
9514,11976
" /> 
<polyline style="fill-rule:evenodd;"
points="12306,11956
12306,12468
11715,12468
11715,11956
12306,11956
" /> 
<polyline style="fill-rule:evenodd;"
points="11243,11956
11243,12468
10652,12468
10652,11956
11243,11956
" /> 
<polyline style="fill-rule:evenodd;"
points="5055,7260
5566,7260
5566,7851
5055,7851
5055,7260
" /> 
<polyline style="fill-rule:evenodd;"
points="5055,8323
5566,8323
5566,8914
5055,8914
5055,8323
" /> 
<polyline style="fill-rule:evenodd;"
points="5715,9883
5715,10591
5006,10591
5006,9883
5715,9883
" /> 
<circle cx="4360.91" cy="10237.6" r="354.331" /> 
</g>
<g style="fill:#000000; fill-opacity:1.0; 
stroke:#000000; stroke-width:39.3701; stroke-opacity:1; 
stroke-linecap:round; stroke-linejoin:round;">
</g>
<g style="fill:#000000; fill-opacity:1.0; 
stroke:#000000; stroke-width:0; stroke-opacity:1; 
stroke-linecap:round; stroke-linejoin:round;">
<polyline style="fill-rule:evenodd;"
points="4005,7260
4516,7260
4516,7851
4005,7851
4005,7260
" /> 
<polyline style="fill-rule:evenodd;"
points="4005,8323
4516,8323
4516,8914
4005,8914
4005,8323
" /> 
<circle cx="6460.91" cy="3837.56" r="300" /> 
</g>
<g style="fill:#000000; fill-opacity:1.0; 
stroke:#000000; stroke-width:39.3701; stroke-opacity:1; 
stroke-linecap:round; stroke-linejoin:round;">
</g>
<g style="fill:#000000; fill-opacity:1.0; 
stroke:#000000; stroke-width:0; stroke-opacity:1; 
stroke-linecap:round; stroke-linejoin:round;">
<circle cx="5460.91" cy="3837.56" r="300" /> 
</g>
<g style="fill:#000000; fill-opacity:1.0; 
stroke:#000000; stroke-width:39.3701; stroke-opacity:1; 
stroke-linecap:round; stroke-linejoin:round;">
</g>
<g style="fill:#000000; fill-opacity:1.0; 
stroke:#000000; stroke-width:0; stroke-opacity:1; 
stroke-linecap:round; stroke-linejoin:round;">
<circle cx="4460.91" cy="3837.56" r="300" /> 
</g>
<g style="fill:#000000; fill-opacity:1.0; 
stroke:#000000; stroke-width:39.3701; stroke-opacity:1; 
stroke-linecap:round; stroke-linejoin:round;">
</g>
<g style="fill:#000000; fill-opacity:1.0; 
stroke:#000000; stroke-width:0; stroke-opacity:1; 
stroke-linecap:round; stroke-linejoin:round;">
<polyline style="fill-rule:evenodd;"
points="5893,2603
6051,2603
6051,3134
5893,3134
5893,2603
" /> 
<polyline style="fill-rule:evenodd;"
points="5638,2603
5795,2603
5795,3134
5638,3134
5638,2603
" /> 
<polyline style="fill-rule:evenodd;"
points="5382,2603
5539,2603
5539,3134
5382,3134
5382,2603
" /> 
<polyline style="fill-rule:evenodd;"
points="5126,2603
5283,2603
5283,3134
5126,3134
5126,2603
" /> 
<polyline style="fill-rule:evenodd;"
points="4870,2603
5027,2603
5027,3134
4870,3134
4870,2603
" /> 
</g>
<g style="fill:#000000; fill-opacity:1.0; 
stroke:#000000; stroke-width:374.016; stroke-opacity:1; 
stroke-linecap:round; stroke-linejoin:round;">
</g>
<g style="fill:#000000; fill-opacity:0.0; 
stroke:#000000; stroke-width:374.016; stroke-opacity:1; 
stroke-linecap:round; stroke-linejoin:round;">
<path d="M6504 2869
L6386 2869
" />
<path d="M4535 2869
L4417 2869
" />
</g>
<g style="fill:#000000; fill-opacity:1.0; 
stroke:#000000; stroke-width:0; stroke-opacity:1; 
stroke-linecap:round; stroke-linejoin:round;">
<circle cx="6838.86" cy="1806.06" r="300" /> 
</g>
<g style="fill:#000000; fill-opacity:1.0; 
stroke:#000000; stroke-width:39.3701; stroke-opacity:1; 
stroke-linecap:round; stroke-linejoin:round;">
</g>
<g style="fill:#000000; fill-opacity:1.0; 
stroke:#000000; stroke-width:0; stroke-opacity:1; 
stroke-linecap:round; stroke-linejoin:round;">
<circle cx="4082.96" cy="1806.06" r="300" /> 
</g>
<g style="fill:#000000; fill-opacity:1.0; 
stroke:#000000; stroke-width:39.3701; stroke-opacity:1; 
stroke-linecap:round; stroke-linejoin:round;">
</g>
<g style="fill:#000000; fill-opacity:1.0; 
stroke:#000000; stroke-width:0; stroke-opacity:1; 
stroke-linecap:round; stroke-linejoin:round;">
<circle cx="7660.91" cy="9987.56" r="196.85" /> 
</g>
<g style="fill:#000000; fill-opacity:1.0; 
stroke:#000000; stroke-width:39.3701; stroke-opacity:1; 
stroke-linecap:round; stroke-linejoin:round;">
</g>
<g style="fill:#000000; fill-opacity:1.0; 
stroke:#000000; stroke-width:0; stroke-opacity:1; 
stroke-linecap:round; stroke-linejoin:round;">
<circle cx="7910.91" cy="8437.56" r="196.85" /> 
</g>
<g style="fill:#000000; fill-opacity:1.0; 
stroke:#000000; stroke-width:39.3701; stroke-opacity:1; 
stroke-linecap:round; stroke-linejoin:round;">
</g>
<g style="fill:#000000; fill-opacity:1.0; 
stroke:#000000; stroke-width:0; stroke-opacity:1; 
stroke-linecap:round; stroke-linejoin:round;">
<circle cx="9275.28" cy="11597.4" r="196.85" /> 
</g>
<g style="fill:#000000; fill-opacity:1.0; 
stroke:#000000; stroke-width:39.3701; stroke-opacity:1; 
stroke-linecap:round; stroke-linejoin:round;">
</g>
<g style="fill:#000000; fill-opacity:1.0; 
stroke:#000000; stroke-width:0; stroke-opacity:1; 
stroke-linecap:round; stroke-linejoin:round;">
<circle cx="8699.51" cy="8681.12" r="135" /> 
</g>
<g style="fill:#000000; fill-opacity:1.0; 
stroke:#000000; stroke-width:39.3701; stroke-opacity:1; 
stroke-linecap:round; stroke-linejoin:round;">
</g>
<g style="fill:#000000; fill-opacity:1.0; 
stroke:#000000; stroke-width:0; stroke-opacity:1; 
stroke-linecap:round; stroke-linejoin:round;">
<circle cx="10660.9" cy="5037.56" r="135" /> 
</g>
<g style="fill:#000000; fill-opacity:1.0; 
stroke:#000000; stroke-width:39.3701; stroke-opacity:1; 
stroke-linecap:round; stroke-linejoin:round;">
</g>
<g style="fill:#000000; fill-opacity:1.0; 
stroke:#000000; stroke-width:0; stroke-opacity:1; 
stroke-linecap:round; stroke-linejoin:round;">
<circle cx="8736.37" cy="8353.18" r="135" /> 
</g>
<g style="fill:#000000; fill-opacity:1.0; 
stroke:#000000; stroke-width:39.3701; stroke-opacity:1; 
stroke-linecap:round; stroke-linejoin:round;">
</g>
<g style="fill:#000000; fill-opacity:1.0; 
stroke:#000000; stroke-width:0; stroke-opacity:1; 
stroke-linecap:round; stroke-linejoin:round;">
<circle cx="8960.91" cy="8882.56" r="135" /> 
</g>
<g style="fill:#000000; fill-opacity:1.0; 
stroke:#000000; stroke-width:39.3701; stroke-opacity:1; 
stroke-linecap:round; stroke-linejoin:round;">
</g>
<g style="fill:#000000; fill-opacity:1.0; 
stroke:#000000; stroke-width:0; stroke-opacity:1; 
stroke-linecap:round; stroke-linejoin:round;">
<circle cx="6246.09" cy="7387.56" r="196.85" /> 
</g>
<g style="fill:#000000; fill-opacity:1.0; 
stroke:#000000; stroke-width:39.3701; stroke-opacity:1; 
stroke-linecap:round; stroke-linejoin:round;">
</g>
<g style="fill:#000000; fill-opacity:1.0; 
stroke:#000000; stroke-width:0; stroke-opacity:1; 
stroke-linecap:round; stroke-linejoin:round;">
<circle cx="7460.91" cy="8537.56" r="135" /> 
</g>
<g style="fill:#000000; fill-opacity:1.0; 
stroke:#000000; stroke-width:39.3701; stroke-opacity:1; 
stroke-linecap:round; stroke-linejoin:round;">
</g>
<g style="fill:#000000; fill-opacity:1.0; 
stroke:#000000; stroke-width:0; stroke-opacity:1; 
stroke-linecap:round; stroke-linejoin:round;">
<circle cx="7610.91" cy="8987.56" r="135" /> 
</g>
<g style="fill:#000000; fill-opacity:1.0; 
stroke:#000000; stroke-width:39.3701; stroke-opacity:1; 
stroke-linecap:round; stroke-linejoin:round;">
</g>
<g style="fill:#000000; fill-opacity:1.0; 
stroke:#000000; stroke-width:0; stroke-opacity:1; 
stroke-linecap:round; stroke-linejoin:round;">
<circle cx="7160.91" cy="10037.6" r="135" /> 
</g>
<g style="fill:#000000; fill-opacity:1.0; 
stroke:#000000; stroke-width:39.3701; stroke-opacity:1; 
stroke-linecap:round; stroke-linejoin:round;">
</g>
<g style="fill:#000000; fill-opacity:1.0; 
stroke:#000000; stroke-width:0; stroke-opacity:1; 
stroke-linecap:round; stroke-linejoin:round;">
<circle cx="7010.91" cy="7987.56" r="135" /> 
</g>
<g style="fill:#000000; fill-opacity:1.0; 
stroke:#000000; stroke-width:39.3701; stroke-opacity:1; 
stroke-linecap:round; stroke-linejoin:round;">
</g>
<g style="fill:#000000; fill-opacity:1.0; 
stroke:#000000; stroke-width:0; stroke-opacity:1; 
stroke-linecap:round; stroke-linejoin:round;">
<circle cx="7410.91" cy="6737.56" r="135" /> 
</g>
<g style="fill:#000000; fill-opacity:1.0; 
stroke:#000000; stroke-width:39.3701; stroke-opacity:1; 
stroke-linecap:round; stroke-linejoin:round;">
</g>
<g style="fill:#000000; fill-opacity:1.0; 
stroke:#000000; stroke-width:0; stroke-opacity:1; 
stroke-linecap:round; stroke-linejoin:round;">
<circle cx="6960.91" cy="6737.56" r="135" /> 
</g>
<g style="fill:#000000; fill-opacity:1.0; 
stroke:#000000; stroke-width:39.3701; stroke-opacity:1; 
stroke-linecap:round; stroke-linejoin:round;">
</g>
<g style="fill:#000000; fill-opacity:1.0; 
stroke:#000000; stroke-width:120; stroke-opacity:1; 
stroke-linecap:round; stroke-linejoin:round;">
</g>
<g style="fill:#000000; fill-opacity:0.0; 
stroke:#000000; stroke-width:120; stroke-opacity:1; 
stroke-linecap:round; stroke-linejoin:round;">
<path d="M8360 11550
L8118 11307
" />
<path d="M8118 11307
L8118 10760
" />
<path d="M9275 11597
L8408 11597
" />
<path d="M8408 11597
L8360 11550
" />
<path d="M7488 10760
L7488 10160
" />
<path d="M7488 10160
L7660 9987
" />
<path d="M4460 3837
L4949 3349
" />
<path d="M4949 3349
L4949 2869
" />
<path d="M4360 11887
L4360 11237
" />
<path d="M4360 11237
L5360 10237
" />
<path d="M7910 8437
L7803 8330
" />
<path d="M7803 8330
L7803 7414
" />
<path d="M4460 3837
L4460 5838
" />
<path d="M4460 5838
L4894 6272
" />
<path d="M4894 6272
L6287 6272
" />
<path d="M6287 6272
L6722 5837
" />
<path d="M6722 5837
L6919 5837
" />
<path d="M6919 5837
L7116 5837
" />
<path d="M7116 5837
L7551 5402
" />
<path d="M7551 5402
L7620 5402
" />
<path d="M9860 7249
L9860 7235
" />
<path d="M10263 7637
L10910 7637
" />
<path d="M9860 7235
L10263 7637
" />
<path d="M9277 12212
L9277 11599
" />
<path d="M9277 11599
L9275 11597
" />
<path d="M8449 5837
L9860 7249
" />
<path d="M8252 5837
L8449 5837
" />
<path d="M7655 3927
L7655 5240
" />
<path d="M7655 5240
L7620 5275
" />
<path d="M7620 5275
L7620 5402
" />
<path d="M8055 5837
L8252 5837
" />
<path d="M7620 5402
L8055 5837
" />
<path d="M7655 3829
L7655 3927
" />
</g>
<g style="fill:#000000; fill-opacity:0.0; 
stroke:#000000; stroke-width:60; stroke-opacity:1; 
stroke-linecap:round; stroke-linejoin:round;">
<path d="M6287 8300
L5912 8300
" />
<path d="M5912 8300
L5676 8064
" />
<path d="M5676 8064
L4981 8064
" />
<path d="M4981 8064
L4473 7556
" />
<path d="M4473 7556
L4260 7556
" />
<path d="M10760 1587
L11080 1587
" />
<path d="M11080 1587
L11585 1082
" />
<path d="M12300 1424
L12300 3889
" />
<path d="M11585 1082
L11958 1082
" />
<path d="M11958 1082
L12300 1424
" />
<path d="M12300 3889
L11152 5037
" />
<path d="M11152 5037
L10660 5037
" />
<path d="M8730 8681
L8699 8681
" />
<path d="M9634 7985
L9363 7985
" />
<path d="M9363 7985
L8995 8353
" />
<path d="M8995 8416
L8730 8681
" />
<path d="M8995 8353
L8995 8416
" />
<path d="M9063 8026
L8736 8353
" />
<path d="M9063 7414
L9063 8026
" />
<path d="M9634 8300
L9352 8300
" />
<path d="M8960 8691
L8960 8882
" />
<path d="M9352 8300
L8960 8691
" />
</g>
<g style="fill:#000000; fill-opacity:0.0; 
stroke:#000000; stroke-width:120; stroke-opacity:1; 
stroke-linecap:round; stroke-linejoin:round;">
<path d="M5360 11887
L5360 11947
" />
<path d="M5360 11947
L5847 12433
" />
<path d="M5847 12433
L7624 12433
" />
<path d="M7624 12433
L7820 12237
" />
<path d="M11910 7637
L11472 8076
" />
<path d="M11472 8076
L10433 8076
" />
<path d="M10433 8076
L9294 6937
" />
<path d="M9294 6937
L8790 6937
" />
<path d="M8790 6937
L8748 6979
" />
<path d="M8748 6979
L8748 7414
" />
<path d="M7820 12288
L7820 12237
" />
<path d="M7820 12237
L7820 11213
" />
<path d="M5310 12037
L5310 12097
" />
<path d="M8110 7014
L8110 7187
" />
<path d="M7578 6482
L8110 7014
" />
<path d="M6838 6482
L7578 6482
" />
<path d="M6246 7074
L6838 6482
" />
<path d="M6246 7387
L6246 7074
" />
<path d="M6246 7387
L5479 7387
" />
<path d="M5479 7387
L5310 7556
" />
<path d="M10060 5011
L11270 3801
" />
<path d="M11270 2078
L11760 1587
" />
<path d="M11270 3801
L11270 2078
" />
<path d="M8560 2060
L10060 3560
" />
<path d="M8360 12337
L7994 12337
" />
<path d="M7994 12337
L7945 12288
" />
<path d="M7945 12288
L7820 12288
" />
<path d="M9669 5402
L10060 5011
" />
<path d="M10060 3560
L10060 5011
" />
<path d="M8560 1447
L8560 2060
" />
<path d="M9669 5837
L9669 5402
" />
<path d="M9669 5837
L10535 5837
" />
<path d="M11910 7213
L11910 7637
" />
<path d="M10535 5837
L11910 7213
" />
<path d="M8433 10137
L8433 8237
" />
<path d="M8433 10760
L8433 10137
" />
<path d="M7991 10137
L7803 10325
" />
<path d="M8433 10137
L7991 10137
" />
<path d="M7803 10325
L7803 10760
" />
<path d="M8433 8164
L8433 8237
" />
<path d="M8433 8237
L8433 8053
" />
<path d="M8748 7414
L8748 7849
" />
<path d="M8748 7849
L8433 8164
" />
<path d="M8433 8053
L8118 7738
" />
<path d="M8118 7738
L8118 7414
" />
<path d="M7820 11213
L7803 11195
" />
<path d="M7803 11195
L7803 10760
" />
<path d="M8560 3927
L8560 4925
" />
<path d="M8560 4925
L9472 5837
" />
<path d="M9472 5837
L9669 5837
" />
</g>
<g style="fill:#000000; fill-opacity:0.0; 
stroke:#000000; stroke-width:60; stroke-opacity:1; 
stroke-linecap:round; stroke-linejoin:round;">
<path d="M8748 10760
L8748 11135
" />
<path d="M8748 11135
L8923 11310
" />
<path d="M8923 11310
L11417 11310
" />
<path d="M11417 11310
L12010 11903
" />
<path d="M12010 11903
L12010 12212
" />
<path d="M6287 9245
L5912 9245
" />
<path d="M5912 9245
L5310 8643
" />
<path d="M5310 8643
L5310 8619
" />
<path d="M7460 8537
L6753 9245
" />
<path d="M6753 9245
L6287 9245
" />
<path d="M6287 9560
L7038 9560
" />
<path d="M7038 9560
L7610 8987
" />
<path d="M7160 10037
L6998 9874
" />
<path d="M6998 9874
L6287 9874
" />
</g>
<g style="fill:#000000; fill-opacity:0.0; 
stroke:#000000; stroke-width:120; stroke-opacity:1; 
stroke-linecap:round; stroke-linejoin:round;">
<path d="M5502 5837
L5502 5402
" />
<path d="M5502 5402
L5972 4932
" />
<path d="M5972 4932
L5972 3254
" />
<path d="M5972 3254
L5972 2869
" />
<path d="M9466 3927
L9466 3829
" />
<path d="M5972 2682
L5972 2869
" />
<path d="M9466 3829
L8120 2483
" />
<path d="M8120 2483
L6171 2483
" />
<path d="M6171 2483
L5972 2682
" />
</g>
<g style="fill:#000000; fill-opacity:0.0; 
stroke:#000000; stroke-width:60; stroke-opacity:1; 
stroke-linecap:round; stroke-linejoin:round;">
<path d="M6858 10760
L6858 11789
" />
<path d="M6858 11789
L6760 11887
" />
<path d="M6760 11887
L6360 11887
" />
<path d="M10910 8637
L10486 8637
" />
<path d="M10486 8637
L10194 8930
" />
<path d="M10194 8930
L9634 8930
" />
<path d="M10009 8615
L9634 8615
" />
<path d="M10397 8226
L10009 8615
" />
<path d="M11499 8226
L10397 8226
" />
<path d="M11910 8637
L11499 8226
" />
<path d="M10910 9637
L9711 9637
" />
<path d="M9711 9637
L9634 9560
" />
<path d="M11910 9637
L11676 9637
" />
<path d="M11676 9637
L11197 9158
" />
<path d="M11197 9158
L9720 9158
" />
<path d="M9720 9158
L9634 9245
" />
<path d="M10910 10637
L10463 10189
" />
<path d="M10463 10189
L9634 10189
" />
<path d="M11910 10637
L11574 10637
" />
<path d="M11574 10637
L11002 10065
" />
<path d="M11002 10065
L10199 10065
" />
<path d="M10199 10065
L10009 9874
" />
<path d="M10009 9874
L9634 9874
" />
<path d="M10947 12212
L10143 12212
" />
<path d="M4260 8619
L4260 10137
" />
<path d="M4260 10137
L4360 10237
" />
<path d="M4460 8819
L4260 8619
" />
<path d="M6287 7985
L7008 7985
" />
<path d="M7008 7985
L7010 7987
" />
<path d="M7410 6737
L7173 6974
" />
<path d="M7173 6974
L7173 7414
" />
<path d="M6858 7414
L6858 6839
" />
<path d="M6858 6839
L6960 6737
" />
</g>
<g style="fill:#FFFFFF; fill-opacity:0.0; 
stroke:#FFFFFF; stroke-width:60; stroke-opacity:1; 
stroke-linecap:round; stroke-linejoin:round;">
</g>
<g style="fill:#FFFFFF; fill-opacity:1.0; 
stroke:#FFFFFF; stroke-width:0; stroke-opacity:1; 
stroke-linecap:round; stroke-linejoin:round;">
<circle cx="7660.91" cy="9987.56" r="65" /> 
</g>
<g style="fill:#FFFFFF; fill-opacity:1.0; 
stroke:#FFFFFF; stroke-width:39.3701; stroke-opacity:1; 
stroke-linecap:round; stroke-linejoin:round;">
</g>
<g style="fill:#FFFFFF; fill-opacity:1.0; 
stroke:#FFFFFF; stroke-width:0; stroke-opacity:1; 
stroke-linecap:round; stroke-linejoin:round;">
<circle cx="7910.91" cy="8437.56" r="65" /> 
</g>
<g style="fill:#FFFFFF; fill-opacity:1.0; 
stroke:#FFFFFF; stroke-width:39.3701; stroke-opacity:1; 
stroke-linecap:round; stroke-linejoin:round;">
</g>
<g style="fill:#FFFFFF; fill-opacity:1.0; 
stroke:#FFFFFF; stroke-width:0; stroke-opacity:1; 
stroke-linecap:round; stroke-linejoin:round;">
<circle cx="9275.28" cy="11597.4" r="65" /> 
</g>
<g style="fill:#FFFFFF; fill-opacity:1.0; 
stroke:#FFFFFF; stroke-width:39.3701; stroke-opacity:1; 
stroke-linecap:round; stroke-linejoin:round;">
</g>
<g style="fill:#FFFFFF; fill-opacity:1.0; 
stroke:#FFFFFF; stroke-width:0; stroke-opacity:1; 
stroke-linecap:round; stroke-linejoin:round;">
<circle cx="8699.51" cy="8681.12" r="65" /> 
</g>
<g style="fill:#FFFFFF; fill-opacity:1.0; 
stroke:#FFFFFF; stroke-width:39.3701; stroke-opacity:1; 
stroke-linecap:round; stroke-linejoin:round;">
</g>
<g style="fill:#FFFFFF; fill-opacity:1.0; 
stroke:#FFFFFF; stroke-width:0; stroke-opacity:1; 
stroke-linecap:round; stroke-linejoin:round;">
<circle cx="10660.9" cy="5037.56" r="65" /> 
</g>
<g style="fill:#FFFFFF; fill-opacity:1.0; 
stroke:#FFFFFF; stroke-width:39.3701; stroke-opacity:1; 
stroke-linecap:round; stroke-linejoin:round;">
</g>
<g style="fill:#FFFFFF; fill-opacity:1.0; 
stroke:#FFFFFF; stroke-width:0; stroke-opacity:1; 
stroke-linecap:round; stroke-linejoin:round;">
<circle cx="8736.37" cy="8353.18" r="65" /> 
</g>
<g style="fill:#FFFFFF; fill-opacity:1.0; 
stroke:#FFFFFF; stroke-width:39.3701; stroke-opacity:1; 
stroke-linecap:round; stroke-linejoin:round;">
</g>
<g style="fill:#FFFFFF; fill-opacity:1.0; 
stroke:#FFFFFF; stroke-width:0; stroke-opacity:1; 
stroke-linecap:round; stroke-linejoin:round;">
<circle cx="8960.91" cy="8882.56" r="65" /> 
</g>
<g style="fill:#FFFFFF; fill-opacity:1.0; 
stroke:#FFFFFF; stroke-width:39.3701; stroke-opacity:1; 
stroke-linecap:round; stroke-linejoin:round;">
</g>
<g style="fill:#FFFFFF; fill-opacity:1.0; 
stroke:#FFFFFF; stroke-width:0; stroke-opacity:1; 
stroke-linecap:round; stroke-linejoin:round;">
<circle cx="6246.09" cy="7387.56" r="65" /> 
</g>
<g style="fill:#FFFFFF; fill-opacity:1.0; 
stroke:#FFFFFF; stroke-width:39.3701; stroke-opacity:1; 
stroke-linecap:round; stroke-linejoin:round;">
</g>
<g style="fill:#FFFFFF; fill-opacity:1.0; 
stroke:#FFFFFF; stroke-width:0; stroke-opacity:1; 
stroke-linecap:round; stroke-linejoin:round;">
<circle cx="7460.91" cy="8537.56" r="65" /> 
</g>
<g style="fill:#FFFFFF; fill-opacity:1.0; 
stroke:#FFFFFF; stroke-width:39.3701; stroke-opacity:1; 
stroke-linecap:round; stroke-linejoin:round;">
</g>
<g style="fill:#FFFFFF; fill-opacity:1.0; 
stroke:#FFFFFF; stroke-width:0; stroke-opacity:1; 
stroke-linecap:round; stroke-linejoin:round;">
<circle cx="7610.91" cy="8987.56" r="65" /> 
</g>
<g style="fill:#FFFFFF; fill-opacity:1.0; 
stroke:#FFFFFF; stroke-width:39.3701; stroke-opacity:1; 
stroke-linecap:round; stroke-linejoin:round;">
</g>
<g style="fill:#FFFFFF; fill-opacity:1.0; 
stroke:#FFFFFF; stroke-width:0; stroke-opacity:1; 
stroke-linecap:round; stroke-linejoin:round;">
<circle cx="7160.91" cy="10037.6" r="65" /> 
</g>
<g style="fill:#FFFFFF; fill-opacity:1.0; 
stroke:#FFFFFF; stroke-width:39.3701; stroke-opacity:1; 
stroke-linecap:round; stroke-linejoin:round;">
</g>
<g style="fill:#FFFFFF; fill-opacity:1.0; 
stroke:#FFFFFF; stroke-width:0; stroke-opacity:1; 
stroke-linecap:round; stroke-linejoin:round;">
<circle cx="7010.91" cy="7987.56" r="65" /> 
</g>
<g style="fill:#FFFFFF; fill-opacity:1.0; 
stroke:#FFFFFF; stroke-width:39.3701; stroke-opacity:1; 
stroke-linecap:round; stroke-linejoin:round;">
</g>
<g style="fill:#FFFFFF; fill-opacity:1.0; 
stroke:#FFFFFF; stroke-width:0; stroke-opacity:1; 
stroke-linecap:round; stroke-linejoin:round;">
<circle cx="7410.91" cy="6737.56" r="65" /> 
</g>
<g style="fill:#FFFFFF; fill-opacity:1.0; 
stroke:#FFFFFF; stroke-width:39.3701; stroke-opacity:1; 
stroke-linecap:round; stroke-linejoin:round;">
</g>
<g style="fill:#FFFFFF; fill-opacity:1.0; 
stroke:#FFFFFF; stroke-width:0; stroke-opacity:1; 
stroke-linecap:round; stroke-linejoin:round;">
<circle cx="6960.91" cy="6737.56" r="65" /> 
</g>
<g style="fill:#FFFFFF; fill-opacity:1.0; 
stroke:#FFFFFF; stroke-width:39.3701; stroke-opacity:1; 
stroke-linecap:round; stroke-linejoin:round;">
</g>
<g style="fill:#FFFFFF; fill-opacity:1.0; 
stroke:#FFFFFF; stroke-width:0; stroke-opacity:1; 
stroke-linecap:round; stroke-linejoin:round;">
<circle cx="11835.9" cy="5862.56" r="433.071" /> 
</g>
<g style="fill:#FFFFFF; fill-opacity:1.0; 
stroke:#FFFFFF; stroke-width:39.3701; stroke-opacity:1; 
stroke-linecap:round; stroke-linejoin:round;">
</g>
<g style="fill:#FFFFFF; fill-opacity:1.0; 
stroke:#FFFFFF; stroke-width:0; stroke-opacity:1; 
stroke-linecap:round; stroke-linejoin:round;">
<circle cx="6360.91" cy="11887.6" r="200" /> 
</g>
<g style="fill:#FFFFFF; fill-opacity:1.0; 
stroke:#FFFFFF; stroke-width:39.3701; stroke-opacity:1; 
stroke-linecap:round; stroke-linejoin:round;">
</g>
<g style="fill:#FFFFFF; fill-opacity:1.0; 
stroke:#FFFFFF; stroke-width:0; stroke-opacity:1; 
stroke-linecap:round; stroke-linejoin:round;">
<circle cx="5360.91" cy="11887.6" r="200" /> 
</g>
<g style="fill:#FFFFFF; fill-opacity:1.0; 
stroke:#FFFFFF; stroke-width:39.3701; stroke-opacity:1; 
stroke-linecap:round; stroke-linejoin:round;">
</g>
<g style="fill:#FFFFFF; fill-opacity:1.0; 
stroke:#FFFFFF; stroke-width:0; stroke-opacity:1; 
stroke-linecap:round; stroke-linejoin:round;">
<circle cx="4360.91" cy="11887.6" r="200" /> 
</g>
<g style="fill:#FFFFFF; fill-opacity:1.0; 
stroke:#FFFFFF; stroke-width:39.3701; stroke-opacity:1; 
stroke-linecap:round; stroke-linejoin:round;">
</g>
<g style="fill:#FFFFFF; fill-opacity:1.0; 
stroke:#FFFFFF; stroke-width:0; stroke-opacity:1; 
stroke-linecap:round; stroke-linejoin:round;">
<circle cx="10910.9" cy="7637.56" r="200" /> 
</g>
<g style="fill:#FFFFFF; fill-opacity:1.0; 
stroke:#FFFFFF; stroke-width:39.3701; stroke-opacity:1; 
stroke-linecap:round; stroke-linejoin:round;">
</g>
<g style="fill:#FFFFFF; fill-opacity:1.0; 
stroke:#FFFFFF; stroke-width:0; stroke-opacity:1; 
stroke-linecap:round; stroke-linejoin:round;">
<circle cx="11910.9" cy="7637.56" r="200" /> 
</g>
<g style="fill:#FFFFFF; fill-opacity:1.0; 
stroke:#FFFFFF; stroke-width:39.3701; stroke-opacity:1; 
stroke-linecap:round; stroke-linejoin:round;">
</g>
<g style="fill:#FFFFFF; fill-opacity:1.0; 
stroke:#FFFFFF; stroke-width:0; stroke-opacity:1; 
stroke-linecap:round; stroke-linejoin:round;">
<circle cx="10910.9" cy="8637.56" r="200" /> 
</g>
<g style="fill:#FFFFFF; fill-opacity:1.0; 
stroke:#FFFFFF; stroke-width:39.3701; stroke-opacity:1; 
stroke-linecap:round; stroke-linejoin:round;">
</g>
<g style="fill:#FFFFFF; fill-opacity:1.0; 
stroke:#FFFFFF; stroke-width:0; stroke-opacity:1; 
stroke-linecap:round; stroke-linejoin:round;">
<circle cx="11910.9" cy="8637.56" r="200" /> 
</g>
<g style="fill:#FFFFFF; fill-opacity:1.0; 
stroke:#FFFFFF; stroke-width:39.3701; stroke-opacity:1; 
stroke-linecap:round; stroke-linejoin:round;">
</g>
<g style="fill:#FFFFFF; fill-opacity:1.0; 
stroke:#FFFFFF; stroke-width:0; stroke-opacity:1; 
stroke-linecap:round; stroke-linejoin:round;">
<circle cx="10910.9" cy="9637.56" r="200" /> 
</g>
<g style="fill:#FFFFFF; fill-opacity:1.0; 
stroke:#FFFFFF; stroke-width:39.3701; stroke-opacity:1; 
stroke-linecap:round; stroke-linejoin:round;">
</g>
<g style="fill:#FFFFFF; fill-opacity:1.0; 
stroke:#FFFFFF; stroke-width:0; stroke-opacity:1; 
stroke-linecap:round; stroke-linejoin:round;">
<circle cx="11910.9" cy="9637.56" r="200" /> 
</g>
<g style="fill:#FFFFFF; fill-opacity:1.0; 
stroke:#FFFFFF; stroke-width:39.3701; stroke-opacity:1; 
stroke-linecap:round; stroke-linejoin:round;">
</g>
<g style="fill:#FFFFFF; fill-opacity:1.0; 
stroke:#FFFFFF; stroke-width:0; stroke-opacity:1; 
stroke-linecap:round; stroke-linejoin:round;">
<circle cx="10910.9" cy="10637.6" r="200" /> 
</g>
<g style="fill:#FFFFFF; fill-opacity:1.0; 
stroke:#FFFFFF; stroke-width:39.3701; stroke-opacity:1; 
stroke-linecap:round; stroke-linejoin:round;">
</g>
<g style="fill:#FFFFFF; fill-opacity:1.0; 
stroke:#FFFFFF; stroke-width:0; stroke-opacity:1; 
stroke-linecap:round; stroke-linejoin:round;">
<circle cx="11910.9" cy="10637.6" r="200" /> 
</g>
<g style="fill:#FFFFFF; fill-opacity:1.0; 
stroke:#FFFFFF; stroke-width:39.3701; stroke-opacity:1; 
stroke-linecap:round; stroke-linejoin:round;">
</g>
<g style="fill:#FFFFFF; fill-opacity:1.0; 
stroke:#FFFFFF; stroke-width:0; stroke-opacity:1; 
stroke-linecap:round; stroke-linejoin:round;">
<circle cx="10760.9" cy="1587.56" r="196.85" /> 
</g>
<g style="fill:#FFFFFF; fill-opacity:1.0; 
stroke:#FFFFFF; stroke-width:39.3701; stroke-opacity:1; 
stroke-linecap:round; stroke-linejoin:round;">
</g>
<g style="fill:#FFFFFF; fill-opacity:1.0; 
stroke:#FFFFFF; stroke-width:0; stroke-opacity:1; 
stroke-linecap:round; stroke-linejoin:round;">
<circle cx="11760.9" cy="1587.56" r="196.85" /> 
</g>
<g style="fill:#FFFFFF; fill-opacity:1.0; 
stroke:#FFFFFF; stroke-width:39.3701; stroke-opacity:1; 
stroke-linecap:round; stroke-linejoin:round;">
</g>
<g style="fill:#FFFFFF; fill-opacity:1.0; 
stroke:#FFFFFF; stroke-width:0; stroke-opacity:1; 
stroke-linecap:round; stroke-linejoin:round;">
<circle cx="10760.9" cy="2587.56" r="196.85" /> 
</g>
<g style="fill:#FFFFFF; fill-opacity:1.0; 
stroke:#FFFFFF; stroke-width:39.3701; stroke-opacity:1; 
stroke-linecap:round; stroke-linejoin:round;">
</g>
<g style="fill:#FFFFFF; fill-opacity:1.0; 
stroke:#FFFFFF; stroke-width:0; stroke-opacity:1; 
stroke-linecap:round; stroke-linejoin:round;">
<circle cx="11760.9" cy="2587.56" r="196.85" /> 
</g>
<g style="fill:#FFFFFF; fill-opacity:1.0; 
stroke:#FFFFFF; stroke-width:39.3701; stroke-opacity:1; 
stroke-linecap:round; stroke-linejoin:round;">
</g>
<g style="fill:#FFFFFF; fill-opacity:1.0; 
stroke:#FFFFFF; stroke-width:0; stroke-opacity:1; 
stroke-linecap:round; stroke-linejoin:round;">
<circle cx="10760.9" cy="3587.56" r="196.85" /> 
</g>
<g style="fill:#FFFFFF; fill-opacity:1.0; 
stroke:#FFFFFF; stroke-width:39.3701; stroke-opacity:1; 
stroke-linecap:round; stroke-linejoin:round;">
</g>
<g style="fill:#FFFFFF; fill-opacity:1.0; 
stroke:#FFFFFF; stroke-width:0; stroke-opacity:1; 
stroke-linecap:round; stroke-linejoin:round;">
<circle cx="11760.9" cy="3587.56" r="196.85" /> 
</g>
<g style="fill:#FFFFFF; fill-opacity:1.0; 
stroke:#FFFFFF; stroke-width:39.3701; stroke-opacity:1; 
stroke-linecap:round; stroke-linejoin:round;">
</g>
<g style="fill:#FFFFFF; fill-opacity:1.0; 
stroke:#FFFFFF; stroke-width:0; stroke-opacity:1; 
stroke-linecap:round; stroke-linejoin:round;">
<circle cx="5360.91" cy="10237.6" r="177.165" /> 
</g>
<g style="fill:#FFFFFF; fill-opacity:1.0; 
stroke:#FFFFFF; stroke-width:39.3701; stroke-opacity:1; 
stroke-linecap:round; stroke-linejoin:round;">
</g>
<g style="fill:#FFFFFF; fill-opacity:1.0; 
stroke:#FFFFFF; stroke-width:0; stroke-opacity:1; 
stroke-linecap:round; stroke-linejoin:round;">
<circle cx="4360.91" cy="10237.6" r="177.165" /> 
</g>
<g style="fill:#FFFFFF; fill-opacity:1.0; 
stroke:#FFFFFF; stroke-width:39.3701; stroke-opacity:1; 
stroke-linecap:round; stroke-linejoin:round;">
</g>
<g style="fill:#FFFFFF; fill-opacity:1.0; 
stroke:#FFFFFF; stroke-width:0; stroke-opacity:1; 
stroke-linecap:round; stroke-linejoin:round;">
<circle cx="6460.91" cy="3837.56" r="160" /> 
</g>
<g style="fill:#FFFFFF; fill-opacity:1.0; 
stroke:#FFFFFF; stroke-width:39.3701; stroke-opacity:1; 
stroke-linecap:round; stroke-linejoin:round;">
</g>
<g style="fill:#FFFFFF; fill-opacity:1.0; 
stroke:#FFFFFF; stroke-width:0; stroke-opacity:1; 
stroke-linecap:round; stroke-linejoin:round;">
<circle cx="5460.91" cy="3837.56" r="160" /> 
</g>
<g style="fill:#FFFFFF; fill-opacity:1.0; 
stroke:#FFFFFF; stroke-width:39.3701; stroke-opacity:1; 
stroke-linecap:round; stroke-linejoin:round;">
</g>
<g style="fill:#FFFFFF; fill-opacity:1.0; 
stroke:#FFFFFF; stroke-width:0; stroke-opacity:1; 
stroke-linecap:round; stroke-linejoin:round;">
<circle cx="4460.91" cy="3837.56" r="160" /> 
</g>
<g style="fill:#FFFFFF; fill-opacity:1.0; 
stroke:#FFFFFF; stroke-width:39.3701; stroke-opacity:1; 
stroke-linecap:round; stroke-linejoin:round;">
</g>
<g style="fill:#FFFFFF; fill-opacity:1.0; 
stroke:#FFFFFF; stroke-width:216.535; stroke-opacity:1; 
stroke-linecap:round; stroke-linejoin:round;">
</g>
<g style="fill:#FFFFFF; fill-opacity:0.0; 
stroke:#FFFFFF; stroke-width:216.535; stroke-opacity:1; 
stroke-linecap:round; stroke-linejoin:round;">
<path d="M6504 2869
L6386 2869
" />
<path d="M4535 2869
L4417 2869
" />
</g>
<g style="fill:#FFFFFF; fill-opacity:1.0; 
stroke:#FFFFFF; stroke-width:0; stroke-opacity:1; 
stroke-linecap:round; stroke-linejoin:round;">
<circle cx="6838.86" cy="1806.06" r="196.85" /> 
</g>
<g style="fill:#FFFFFF; fill-opacity:1.0; 
stroke:#FFFFFF; stroke-width:39.3701; stroke-opacity:1; 
stroke-linecap:round; stroke-linejoin:round;">
</g>
<g style="fill:#FFFFFF; fill-opacity:1.0; 
stroke:#FFFFFF; stroke-width:0; stroke-opacity:1; 
stroke-linecap:round; stroke-linejoin:round;">
<circle cx="4082.96" cy="1806.06" r="196.85" /> 
</g>
<g style="fill:#FFFFFF; fill-opacity:1.0; 
stroke:#FFFFFF; stroke-width:39.3701; stroke-opacity:1; 
stroke-linecap:round; stroke-linejoin:round;">
</g>
<g style="fill:#000000; fill-opacity:1.0; 
stroke:#000000; stroke-width:39.3701; stroke-opacity:1; 
stroke-linecap:round; stroke-linejoin:round;">
</g> 
</svg>
